<?xml version="1.0" standalone="no"?>
<!DOCTYPE svg PUBLIC "-//W3C//DTD SVG 20010904//EN"
 "http://www.w3.org/TR/2001/REC-SVG-20010904/DTD/svg10.dtd">
<svg version="1.0" xmlns="http://www.w3.org/2000/svg"
 width="420.000000pt" height="420.000000pt" viewBox="0 0 420.000000 420.000000"
 preserveAspectRatio="xMidYMid meet">
<metadata>
Created by potrace 1.11, written by Peter Selinger 2001-2013
</metadata>
<g transform="translate(0.000000,420.000000) scale(0.100000,-0.100000)"
fill="#000000" stroke="none">
<path d="M658 2645 c-3 -4 -20 -7 -37 -7 -28 -1 -31 -4 -38 -47 -8 -51 -10
-60 -12 -63 -2 -2 -4 -20 -6 -41 -2 -21 -6 -50 -10 -65 -14 -56 -17 -68 -20
-102 -2 -19 -4 -35 -5 -35 -3 0 -10 -47 -13 -77 -1 -16 -5 -28 -9 -28 -3 0 -5
-8 -4 -17 3 -18 -10 -85 -20 -113 -4 -8 -8 -35 -9 -60 -2 -25 -6 -56 -10 -70
-9 -36 -21 -114 -24 -158 -1 -7 -4 -11 -8 -9 -5 3 -9 -11 -9 -31 -1 -21 -5
-57 -9 -82 -4 -25 -8 -56 -9 -69 l-1 -24 177 -1 c189 -1 195 0 189 48 -2 10 1
16 6 13 4 -3 8 10 7 29 -1 19 2 37 7 40 5 3 7 9 4 14 -3 5 -2 18 4 28 5 10 6
24 1 31 -4 8 -2 24 6 39 7 14 11 29 8 34 -3 4 -2 13 2 20 4 7 9 26 11 43 1 16
6 41 9 55 4 14 8 34 9 45 8 66 18 121 24 125 3 3 6 21 6 40 0 19 2 40 6 45 4
6 7 22 8 38 2 48 4 57 11 57 3 0 6 16 5 35 -1 19 1 35 5 35 4 0 6 16 5 36 -1
20 4 41 10 48 9 8 62 11 181 10 93 -1 173 -2 178 -3 4 0 5 -11 2 -23 -4 -13
-9 -34 -11 -48 -8 -52 -14 -86 -20 -120 -4 -19 -8 -46 -10 -60 -2 -14 -8 -39
-14 -57 -5 -17 -7 -34 -4 -37 3 -3 2 -13 -2 -23 -5 -10 -7 -21 -7 -26 1 -4 -2
-26 -7 -50 -5 -23 -12 -58 -15 -77 -3 -19 -8 -45 -10 -56 -12 -58 -26 -151
-28 -181 -1 -13 -4 -23 -8 -23 -3 0 -6 -12 -6 -27 -1 -16 -4 -42 -8 -59 -5
-27 -3 -32 17 -36 31 -5 337 -2 342 4 3 3 8 25 11 49 4 24 10 52 15 62 7 11 6
17 -1 17 -6 0 -8 5 -3 13 8 12 10 23 18 67 2 14 7 41 11 60 4 19 7 50 8 67 1
18 4 33 7 33 6 0 9 25 10 73 0 9 4 17 8 17 4 0 8 15 9 33 2 40 6 59 14 72 4 6
3 17 -2 25 -5 8 -5 19 0 25 4 5 11 24 13 40 3 17 8 41 11 55 3 13 7 39 8 57 1
18 5 33 10 33 4 0 6 10 5 23 0 12 2 36 6 53 l8 30 134 0 134 -1 35 -39 c19
-22 33 -43 30 -47 -2 -4 2 -10 8 -12 7 -3 8 -6 2 -6 -5 -1 -9 -14 -8 -31 1
-16 -1 -30 -5 -30 -4 0 -8 -15 -8 -32 -1 -18 -4 -46 -8 -63 -4 -16 -7 -38 -7
-47 0 -10 -3 -18 -7 -18 -4 0 -8 -15 -8 -32 -1 -32 -4 -56 -19 -123 -3 -16 -7
-46 -9 -65 -2 -19 -4 -35 -5 -35 -1 0 -3 -7 -5 -15 -8 -41 -17 -88 -21 -115
-2 -16 -9 -55 -15 -85 -18 -95 -18 -110 0 -111 69 -4 341 0 348 4 6 4 9 18 8
32 -2 14 1 27 5 30 5 3 7 14 5 25 -2 11 -1 20 3 20 4 0 8 15 9 33 1 33 12 96
28 167 3 14 7 41 10 60 2 19 9 57 14 85 5 27 7 53 5 57 -3 5 -1 8 4 8 5 0 8
12 7 28 -1 15 1 32 4 37 3 6 7 21 9 35 2 13 9 31 15 39 9 12 9 13 0 7 -14 -8
-18 6 -6 18 7 7 11 28 17 98 4 39 0 50 -20 69 -13 12 -21 27 -17 33 3 6 3 8
-2 4 -7 -6 -69 63 -106 118 -9 13 -19 21 -22 17 -4 -3 -7 1 -7 10 0 10 -4 17
-10 17 -5 0 -10 7 -10 16 0 8 -4 12 -10 9 -5 -3 -10 -1 -10 5 0 6 -8 10 -17 8
-10 -1 -23 1 -30 5 -6 4 -14 3 -18 -3 -4 -7 -12 -7 -26 0 -14 8 -19 7 -19 -1
0 -9 -3 -9 -14 0 -10 9 -16 9 -21 1 -5 -8 -11 -8 -21 1 -8 6 -14 7 -14 2 0 -5
-9 -9 -20 -9 -11 0 -20 4 -20 8 0 5 -9 4 -20 -2 -14 -8 -20 -8 -20 0 0 6 -5 8
-12 4 -14 -9 -58 -12 -58 -4 0 3 -9 6 -20 6 -11 0 -20 -3 -20 -7 0 -7 -49 -3
-56 4 -3 3 -21 1 -40 -3 -20 -5 -34 -4 -34 2 0 5 -6 6 -12 2 -18 -11 -62 -11
-70 1 -5 7 -10 7 -15 0 -9 -12 -83 -15 -83 -4 0 4 -13 4 -30 -1 -19 -5 -30 -5
-30 1 0 6 -5 7 -12 3 -14 -9 -58 -12 -58 -4 0 3 -9 6 -20 6 -11 0 -20 -3 -20
-7 0 -7 -49 -3 -56 4 -3 3 -21 1 -40 -3 -20 -5 -34 -4 -34 2 0 5 -5 6 -11 3
-18 -12 -68 -12 -73 -1 -3 7 -7 8 -13 1 -11 -13 -43 -15 -43 -3 0 6 -7 4 -17
-3 -12 -11 -17 -11 -20 -2 -3 8 -12 9 -27 3 -12 -4 -29 -5 -36 0 -7 4 -26 4
-41 0 -17 -5 -31 -5 -35 1 -3 5 -10 7 -15 3 -18 -11 -68 -11 -73 0 -3 7 -7 8
-13 1 -11 -13 -43 -15 -43 -3 0 7 -5 6 -13 -1 -9 -7 -17 -7 -23 -1 -6 6 -13 8
-16 5z"/>
<path d="M2840 2641 c-8 -6 -17 -8 -21 -6 -3 3 -15 -4 -26 -15 -12 -10 -24
-16 -27 -13 -3 4 -6 -1 -6 -10 0 -9 -4 -17 -10 -17 -5 0 -19 -9 -30 -20 -11
-11 -20 -17 -20 -14 0 4 -9 -5 -21 -20 -11 -14 -26 -23 -32 -19 -7 3 -9 3 -5
-2 6 -6 -21 -33 -70 -70 -51 -38 -85 -79 -86 -106 0 -16 -4 -29 -7 -29 -3 0
-6 -10 -6 -22 0 -13 -5 -48 -12 -80 -7 -31 -14 -69 -15 -85 -2 -15 -5 -28 -6
-28 -1 0 -3 -15 -6 -34 -2 -19 -7 -46 -10 -60 -3 -14 -7 -46 -10 -71 -3 -24
-8 -47 -12 -50 -4 -3 -7 -16 -6 -30 0 -14 -4 -42 -8 -63 -13 -62 -21 -111 -20
-129 0 -10 -2 -18 -6 -18 -9 0 -13 -80 -4 -81 52 -6 345 -2 354 6 7 6 14 26
15 45 2 43 10 93 17 117 3 10 8 34 11 53 3 19 7 44 9 55 2 11 4 30 5 43 0 13
5 21 10 18 5 -3 8 1 7 10 -1 14 11 17 67 18 39 0 67 -3 67 -9 0 -7 3 -7 8 0 4
6 39 10 77 10 39 0 73 -4 77 -10 5 -7 8 -7 8 0 0 6 61 10 162 10 97 0 166 -4
170 -10 5 -7 8 -7 8 0 0 6 50 10 133 9 147 -2 138 -6 139 69 0 15 5 27 11 27
6 0 8 2 5 6 -3 3 -2 21 2 40 5 23 4 34 -4 35 -6 1 -27 2 -46 3 -19 1 -41 5
-49 10 -9 6 -12 5 -8 -1 8 -12 -412 -12 -432 1 -9 6 -12 5 -8 -1 4 -7 -56 -10
-178 -10 -102 1 -185 5 -185 10 0 4 5 5 11 1 8 -4 8 0 0 15 -7 12 -8 27 -4 34
9 14 15 43 16 75 1 12 3 22 7 22 3 0 6 12 6 28 2 56 14 84 48 118 20 20 36 33
36 30 0 -3 8 2 18 12 16 16 39 18 242 17 l225 0 -3 -30 c-2 -16 -4 -42 -5 -57
-1 -16 -4 -28 -7 -28 -3 0 -6 -15 -5 -32 l0 -33 178 -1 c194 -1 189 -3 191 57
1 16 4 29 8 29 4 0 5 9 3 20 -2 11 2 20 8 20 7 0 6 4 -3 10 -8 5 -10 10 -4 10
6 0 11 6 11 13 1 16 11 83 19 132 12 66 10 80 -6 76 -35 -8 -70 -6 -74 3 -3 8
-7 8 -13 1 -9 -12 -52 -13 -70 -2 -7 5 -13 4 -13 -2 0 -7 -8 -7 -23 -2 -14 5
-30 5 -40 0 -11 -7 -17 -6 -17 1 0 6 -5 8 -12 3 -18 -11 -42 -10 -50 2 -5 7
-10 7 -15 0 -11 -13 -43 -15 -43 -3 0 6 -7 4 -17 -3 -12 -10 -17 -11 -20 -2
-3 8 -13 9 -34 3 -18 -5 -29 -5 -29 1 0 6 -5 7 -11 4 -14 -10 -59 -14 -59 -6
0 4 -9 7 -20 7 -11 0 -20 -3 -20 -6 0 -9 -32 -6 -48 4 -7 4 -12 2 -12 -5 0 -8
-4 -9 -13 0 -10 8 -17 7 -25 -1 -9 -9 -12 -9 -12 1 0 7 -5 9 -12 4 -18 -11
-42 -10 -50 2 -5 6 -8 5 -8 -3 0 -10 -5 -10 -20 -2 -15 8 -20 8 -20 -1 0 -8
-4 -9 -13 0 -10 8 -17 7 -25 -1 -9 -9 -12 -9 -12 1 0 7 -5 9 -12 5 -18 -11
-48 -12 -48 -2 0 5 -10 4 -21 -3 -15 -8 -19 -8 -15 0 9 13 6 14 -14 2z"/>
</g>
</svg>
